<svg height="512pt" viewBox="-26 0 512 512" width="512pt" xmlns="http://www.w3.org/2000/svg"><path d="m180.179688 123.75h217.355468c20.652344 0 37.394532 16.742188 37.394532 37.394531v3.296875c0 20.652344-16.742188 37.390625-37.394532 37.390625h-217.355468c-20.652344 0-37.394532-16.738281-37.394532-37.390625v-3.296875c0-20.652343 16.742188-37.394531 37.394532-37.394531zm0 0" fill="#1a414c"/><path d="m459.019531 242.269531c0 21.398438-16.480469 38.933594-37.433593 40.609375-1.09375.09375-2.203126.140625-3.316407.140625-2.851562 0-5.632812-.289062-8.320312-.851562h-245.449219c-2.6875.5625-5.464844.851562-8.320312.851562h-.027344c-22.5-.019531-40.722656-18.25-40.722656-40.75 0-21.214843 16.210937-38.640625 36.925781-40.558593 1.257812-.128907 2.535156-.183594 3.824219-.183594 1.714843 0 3.390624.101562 5.046874.304687h251.992188c1.660156-.203125 3.335938-.304687 5.050781-.304687 2.417969 0 4.789063.214844 7.085938.621094 19.128906 3.34375 33.664062 20.035156 33.664062 40.121093zm0 0" fill="#ffd0a6"/><g fill="#e8b182"><path d="m425.355469 202.144531v51.617188c0 10.023437-1.304688 19.78125-3.769531 29.117187-1.09375.09375-2.203126.140625-3.316407.140625-2.851562 0-5.632812-.289062-8.320312-.851562h-245.449219c-2.6875.5625-5.464844.851562-8.320312.851562h-.027344c-2.484375-9.382812-3.796875-19.175781-3.796875-29.253906v-52.054687c1.257812-.128907 2.539062-.183594 3.824219-.183594 1.714843 0 3.390624.101562 5.050781.304687h251.992187c1.65625-.203125 3.335938-.304687 5.046875-.304687 2.417969 0 4.789063.210937 7.085938.617187zm0 0"/><path d="m436.804688 251.339844c-3.03125 0-5.914063-1.761719-7.199219-4.71875-3.28125-7.539063-13.179688-5.128906-14.296875-4.828125-4.171875 1.1875-8.480469-1.246094-9.664063-5.414063-1.183593-4.167968 1.261719-8.515625 5.429688-9.695312 8.304687-2.359375 25.871093-2.53125 32.921875 13.683594 1.726562 3.972656-.09375 8.59375-4.070313 10.320312-1.015625.445312-2.078125.652344-3.121093.652344zm0 0"/><path d="m141.832031 251.339844c-1.042969 0-2.105469-.210938-3.128906-.652344-3.972656-1.730469-5.789063-6.351562-4.0625-10.328125 3.988281-9.15625 14.351563-17.652344 31.480469-14.027344 4.238281.894531 6.949218 5.058594 6.050781 9.296875-.894531 4.242188-5.058594 6.949219-9.300781 6.054688-3.996094-.847656-11.113282-1.328125-13.839844 4.941406-1.285156 2.953125-4.171875 4.714844-7.199219 4.714844zm0 0"/></g><path d="m413.21875 459.28125v52.71875h-248.722656v-52.71875c0-68.683594 55.675781-124.367188 124.359375-124.367188 9.714843 0 19.175781 1.121094 28.253906 3.226563 23 5.34375 43.546875 17.070313 59.683594 33.199219 22.503906 22.511718 36.425781 53.601562 36.425781 87.941406zm0 0" fill="#d1244a"/><path d="m413.21875 459.28125v52.71875h-192.210938v-52.71875c0-58.964844 41.035157-108.347656 96.101563-121.144531 23 5.347656 43.546875 17.074219 59.683594 33.203125 22.503906 22.511718 36.425781 53.601562 36.425781 87.941406zm0 0" fill="#f7526e"/><path d="m213.15625 366.832031c8.371094 34.019531 39.085938 59.253907 75.703125 59.253907 5.0625 0 10.019531-.492188 14.8125-1.414063 29.878906-5.742187 53.699219-28.535156 60.917969-57.871094" fill="#d39b71"/><path d="m413.21875 183.472656v84.6875c0 60.605469-43.355469 111.082032-100.742188 122.113282-7.640624 1.476562-15.546874 2.242187-23.621093 2.242187-68.683594 0-124.359375-55.671875-124.359375-124.355469v-84.6875c0-68.683594 55.675781-124.367187 124.359375-124.367187 8.078125 0 15.980469.769531 23.621093 2.242187 24.871094 4.78125 47.105469 16.972656 64.316407 34.183594 22.503906 22.511719 36.425781 53.597656 36.425781 87.941406zm0 0" fill="#e8b182"/><path d="m413.21875 183.472656v84.6875c0 60.605469-43.355469 111.082032-100.742188 122.113282-57.390624-11.03125-100.742187-61.507813-100.742187-122.113282v-84.6875c0-60.605468 43.351563-111.089844 100.742187-122.125 24.871094 4.78125 47.105469 16.972656 64.316407 34.183594 22.503906 22.511719 36.425781 53.597656 36.425781 87.941406zm0 0" fill="#ffd0a6"/><path d="m288.859375 323.21875c-20.65625 0-40.078125-8.042969-54.683594-22.648438-3.066406-3.066406-3.066406-8.035156 0-11.097656 3.0625-3.0625 8.03125-3.0625 11.09375 0 11.644531 11.644532 27.121094 18.054688 43.589844 18.054688 16.464844 0 31.941406-6.410156 43.585937-18.054688 3.0625-3.0625 8.03125-3.0625 11.09375 0 3.066407 3.066406 3.066407 8.035156 0 11.097656-14.605468 14.605469-34.027343 22.648438-54.679687 22.648438zm0 0" fill="#d39b71"/><path d="m234.679688 259.238281c-4.332032 0-7.84375-3.511719-7.84375-7.847656v-30.566406c0-4.335938 3.511718-7.847657 7.84375-7.847657 4.335937 0 7.847656 3.511719 7.847656 7.847657v30.566406c0 4.335937-3.511719 7.847656-7.847656 7.847656zm0 0" fill="#1a414c"/><path d="m343.035156 259.238281c-4.332031 0-7.84375-3.511719-7.84375-7.847656v-30.566406c0-4.335938 3.511719-7.847657 7.84375-7.847657 4.335938 0 7.847656 3.511719 7.847656 7.847657v30.566406c0 4.335937-3.511718 7.847656-7.847656 7.847656zm0 0" fill="#1a414c"/><path d="m407.273438 51.34375v70.984375h-233.875v-70.984375c0-28.347656 22.984374-51.34375 51.34375-51.34375h131.1875c28.351562 0 51.34375 22.996094 51.34375 51.34375zm0 0" fill="#d1244a"/><path d="m386.761719 145.398438c0 19.199218-15.558594 34.765624-34.765625 34.765624-.238282 0-.480469 0-.71875-.011718-9.648438-.199219-18.328125-4.332032-24.511719-10.859375-4.375 2.785156-9.5625 4.394531-15.140625 4.394531-15.617188 0-28.285156-12.667969-28.285156-28.289062zm0 0" fill="#3e5b68"/><path d="m407.273438 51.34375v70.984375h-161.617188v-70.984375c0-28.347656 22.980469-51.34375 51.34375-51.34375h58.929688c28.351562 0 51.34375 22.996094 51.34375 51.34375zm0 0" fill="#f7526e"/><path d="m407.273438 111.863281v33.539063h-321.816407c-9.257812 0-16.769531-7.507813-16.769531-16.769532 0-4.632812 1.882812-8.828124 4.917969-11.863281 3.035156-3.03125 7.21875-4.90625 11.851562-4.90625zm0 0" fill="#d1244a"/><path d="m407.273438 111.863281v33.539063h-118.507813c-9.257813 0-16.769531-7.507813-16.769531-16.769532 0-4.632812 1.882812-8.828124 4.917968-11.863281 3.035157-3.03125 7.21875-4.90625 11.851563-4.90625zm0 0" fill="#f7526e"/><path d="m351.277344 180.152344c-9.648438-.199219-18.328125-4.332032-24.511719-10.859375-4.375 2.785156-9.5625 4.394531-15.140625 4.394531-15.617188 0-28.285156-12.667969-28.285156-28.289062h49.105468c-2.6875 10.546874-.0625 34.167968 18.832032 34.753906zm0 0" fill="#1a414c"/><path d="m173.304688 362.246094v132.496094c0 9.527343-7.71875 17.25-17.25 17.25h-138.792969c-9.53125 0-17.261719-7.722657-17.261719-17.25v-132.496094c0-9.53125 7.730469-17.261719 17.261719-17.261719h138.792969c9.53125 0 17.25 7.730469 17.25 17.261719zm0 0" fill="#f2a755"/><path d="m173.304688 362.246094v132.496094c0 9.527343-7.71875 17.25-17.25 17.25h-122.441407c-9.53125 0-17.25-7.722657-17.25-17.25v-132.496094c0-9.53125 7.71875-17.261719 17.25-17.261719h122.441407c9.53125 0 17.25 7.730469 17.25 17.261719zm0 0" fill="#f4d553"/><path d="m115.539062 429.257812-28.882812-19.640624-28.886719 19.640624v-84.273437h57.769531zm0 0" fill="#f7526e"/></svg>